<svg aria-hidden="true" style="position: absolute; width: 0; height: 0; overflow: hidden;" version="1.1" xmlns="http://www.w3.org/2000/svg" xmlns:xlink="http://www.w3.org/1999/xlink">
<defs>
<symbol id="icon-facebook" viewBox="0 0 32 32">
<path d="M19.52 4.64c0.24 0 0.48 0 0.96 0v3.6c-0.24 0-0.72 0-1.2 0s-0.96 0-1.2 0.24c-0.24 0.24-0.24 0.48-0.24 1.040 0 0.48 0 0.8 0 1.28h2.64v3.040h-2.64v13.2h-4.080v-13.28h-2.16v-3.040h2.16v-1.040c0-1.76 0.24-3.040 0.72-3.6 0.72-1.040 2.16-1.52 4.32-1.52 0.24 0.080 0.48 0.080 0.72 0.080z"></path>
</symbol>
<symbol id="icon-instagram" viewBox="0 0 32 32">
<path d="M24.093 12.663c-0.010-0.684-0.137-1.362-0.379-2.001-0.424-1.092-1.288-1.955-2.382-2.378-0.632-0.238-1.301-0.365-1.978-0.379-0.87-0.039-1.146-0.050-3.355-0.050s-2.492 0-3.356 0.050c-0.676 0.014-1.344 0.142-1.977 0.379-1.094 0.423-1.959 1.286-2.382 2.378-0.238 0.631-0.366 1.299-0.379 1.973-0.039 0.87-0.051 1.145-0.051 3.351s0 2.487 0.051 3.351c0.014 0.676 0.141 1.342 0.379 1.975 0.424 1.091 1.288 1.954 2.383 2.377 0.63 0.246 1.298 0.385 1.977 0.406 0.871 0.039 1.147 0.051 3.356 0.051s2.492 0 3.356-0.051c0.676-0.014 1.344-0.141 1.978-0.378 1.094-0.424 1.958-1.287 2.382-2.378 0.238-0.632 0.365-1.299 0.379-1.975 0.039-0.869 0.051-1.144 0.051-3.351-0.002-2.206-0.002-2.485-0.052-3.35zM15.994 20.156c-2.31 0-4.182-1.869-4.182-4.175s1.872-4.175 4.182-4.175c2.309 0 4.182 1.869 4.182 4.175s-1.874 4.175-4.182 4.175zM20.342 12.625c-0.54 0-0.975-0.435-0.975-0.974s0.435-0.974 0.975-0.974c0.538 0 0.974 0.435 0.974 0.974s-0.436 0.974-0.974 0.974z"></path>
<path d="M15.995 18.53c1.407 0 2.548-1.141 2.548-2.548s-1.141-2.548-2.548-2.548c-1.407 0-2.548 1.141-2.548 2.548s1.141 2.548 2.548 2.548z"></path>
</symbol>
<symbol id="icon-logo" viewBox="0 0 35 32">
<path fill="#ecd979" style="fill: var(--color1, #ecd979)" d="M35.152 31.565h-1.096v-1.112h1.098v1.112zM34.055 31.565h-1.098v-1.112h1.098v1.112zM29.664 31.565h-1.098v-1.112h1.098v1.112zM28.566 31.565h-1.098v-1.112h1.098v1.112zM27.468 31.565h-1.098v-1.112h1.098v1.112zM20.88 31.565h-1.098v-1.112h1.098v1.112zM14.294 31.565h-1.098v-1.112h1.098v1.112zM7.706 31.565h-1.098v-1.112h1.098v1.112zM6.609 31.565h-1.098v-1.112h1.097v1.112z"></path>
<path fill="#ecd979" style="fill: var(--color1, #ecd979)" d="M5.511 31.565h-1.098v-1.112h1.099v1.112zM1.12 31.565h-1.099v-1.112h1.099v1.112zM35.152 30.452h-1.096v-1.113h1.098v1.113zM30.762 30.452h-1.098v-1.113h1.098v1.113z"></path>
<path fill="#ecd979" style="fill: var(--color1, #ecd979)" d="M29.664 30.452h-1.098v-1.113h1.098v1.113zM28.566 30.452h-1.098v-1.113h1.098v1.113zM20.88 30.452h-1.098v-1.113h1.098v1.113z"></path>
<path fill="#ecd979" style="fill: var(--color1, #ecd979)" d="M19.783 30.452h-1.098v-1.113h1.098v1.113zM15.392 30.452h-1.098v-1.113h1.098v1.113z"></path>
<path fill="#ecd979" style="fill: var(--color1, #ecd979)" d="M14.294 30.452h-1.098v-1.113h1.098v1.113zM6.609 30.452h-1.098v-1.113h1.097v1.113z"></path>
<path fill="#ecd979" style="fill: var(--color1, #ecd979)" d="M5.511 30.452h-1.098v-1.113h1.099v1.113zM4.413 30.452h-1.098v-1.113h1.098v1.113zM31.859 29.339h-1.098v-1.113h1.098v1.112zM30.762 29.339h-1.098v-1.113h1.098v1.112z"></path>
<path fill="#ecd979" style="fill: var(--color1, #ecd979)" d="M29.664 29.339h-1.098v-1.113h1.098v1.112zM20.88 29.339h-1.098v-1.113h1.098v1.112z"></path>
<path fill="#ecd979" style="fill: var(--color1, #ecd979)" d="M19.783 29.339h-1.098v-1.113h1.098v1.112z"></path>
<path fill="#ecd979" style="fill: var(--color1, #ecd979)" d="M18.685 29.339h-1.098v-1.113h1.098v1.112zM16.49 29.339h-1.098v-1.113h1.098v1.112zM15.392 29.339h-1.098v-1.113h1.098v1.112z"></path>
<path fill="#ecd979" style="fill: var(--color1, #ecd979)" d="M14.294 29.339h-1.098v-1.113h1.098v1.112zM5.511 29.339h-1.098v-1.113h1.099v1.112zM4.413 29.339h-1.098v-1.113h1.098v1.112zM3.315 29.339h-1.098v-1.113h1.098v1.112zM32.957 28.226h-1.098v-1.114h1.098v1.114zM31.859 28.226h-1.098v-1.114h1.098v1.114zM30.762 28.226h-1.098v-1.114h1.098v1.114zM25.272 28.226h-1.098v-1.114h1.098v1.114zM24.174 28.226h-1.098v-1.114h1.098v1.114zM23.077 28.226h-1.098v-1.114h1.098v1.114zM19.783 28.226h-1.098v-1.114h1.098v1.114z"></path>
<path fill="#ecd979" style="fill: var(--color1, #ecd979)" d="M18.685 28.226h-1.098v-1.114h1.098v1.114zM16.49 28.226h-1.098v-1.114h1.098v1.114zM15.392 28.226h-1.098v-1.114h1.098v1.114zM12.098 28.226h-1.098v-1.114h1.098v1.114zM11 28.226h-1.098v-1.114h1.098v1.114zM9.902 28.226h-1.098v-1.114h1.098v1.114zM4.413 28.226h-1.098v-1.114h1.098v1.114zM3.315 28.226h-1.098v-1.114h1.098v1.114z"></path>
<path fill="#ecd979" style="fill: var(--color1, #ecd979)" d="M2.218 28.226h-1.098v-1.114h1.098v1.114zM34.055 27.113h-1.098v-1.113h1.098v1.113zM32.957 27.113h-1.098v-1.113h1.098v1.113zM31.859 27.113h-1.098v-1.113h1.098v1.113zM24.174 27.113h-1.098v-1.113h1.098v1.113zM23.077 27.113h-1.098v-1.113h1.098v1.113zM21.978 27.113h-1.098v-1.113h1.098v1.113zM18.685 27.113h-1.098v-1.113h1.098v1.113zM16.49 27.113h-1.098v-1.113h1.098v1.113zM13.196 27.113h-1.098v-1.113h1.098v1.113zM12.098 27.113h-1.098v-1.113h1.098v1.113zM11 27.113h-1.098v-1.113h1.098v1.113z"></path>
<path fill="#ecd979" style="fill: var(--color1, #ecd979)" d="M3.315 27.113h-1.098v-1.113h1.098v1.113z"></path>
<path fill="#ecd979" style="fill: var(--color1, #ecd979)" d="M2.218 27.113h-1.098v-1.113h1.098v1.113z"></path>
<path fill="#ecd979" style="fill: var(--color1, #ecd979)" d="M1.12 27.113h-1.099v-1.113h1.099v1.113zM34.055 26h-1.098v-1.113h1.098v1.113zM32.957 26h-1.098v-1.113h1.098v1.113zM23.077 26h-1.098v-1.113h1.098v1.113zM21.978 26h-1.098v-1.113h1.098v1.113z"></path>
<path fill="#ecd979" style="fill: var(--color1, #ecd979)" d="M20.88 26h-1.098v-1.113h1.098v1.113zM14.294 26h-1.098v-1.113h1.098v1.113zM13.196 26h-1.098v-1.113h1.098v1.113zM12.098 26h-1.098v-1.113h1.098v1.113zM2.218 26h-1.098v-1.113h1.098v1.113z"></path>
<path fill="#ecd979" style="fill: var(--color1, #ecd979)" d="M1.12 26h-1.099v-1.113h1.099v1.113zM34.055 24.887h-1.098v-1.114h1.098v1.114zM28.566 24.887h-1.098v-1.114h1.098v1.114zM18.685 24.887h-1.098v-1.114h1.098v1.114zM16.49 24.887h-1.098v-1.114h1.098v1.114zM6.609 24.887h-1.098v-1.114h1.097v1.114zM1.12 24.887h-1.099v-1.114h1.099v1.114zM28.566 23.774h-1.098v-1.112h1.098v1.112zM27.468 23.774h-1.098v-1.112h1.098v1.112zM19.783 23.774h-1.098v-1.112h1.098v1.112z"></path>
<path fill="#ecd979" style="fill: var(--color1, #ecd979)" d="M18.685 23.774h-1.098v-1.112h1.098v1.112zM16.49 23.774h-1.098v-1.112h1.098v1.112zM15.392 23.774h-1.098v-1.112h1.098v1.112zM7.706 23.774h-1.098v-1.112h1.098v1.112zM6.609 23.774h-1.098v-1.112h1.097v1.112zM28.566 22.661h-1.098v-1.113h1.098v1.113zM27.468 22.661h-1.098v-1.113h1.098v1.113zM26.37 22.661h-1.098v-1.113h1.098v1.113zM20.88 22.661h-1.098v-1.113h1.098v1.113z"></path>
<path fill="#ecd979" style="fill: var(--color1, #ecd979)" d="M19.783 22.661h-1.098v-1.113h1.098v1.113zM15.392 22.661h-1.098v-1.113h1.098v1.113z"></path>
<path fill="#ecd979" style="fill: var(--color1, #ecd979)" d="M14.294 22.661h-1.098v-1.113h1.098v1.113zM8.805 22.661h-1.098v-1.113h1.098v1.113zM7.706 22.661h-1.098v-1.113h1.098v1.113zM6.609 22.661h-1.098v-1.113h1.097v1.113zM27.468 21.548h-1.098v-1.113h1.098v1.112zM26.37 21.548h-1.098v-1.113h1.098v1.112zM21.978 21.548h-1.098v-1.113h1.098v1.112z"></path>
<path fill="#ecd979" style="fill: var(--color1, #ecd979)" d="M20.88 21.548h-1.098v-1.113h1.098v1.112zM14.294 21.548h-1.098v-1.113h1.098v1.112zM13.196 21.548h-1.098v-1.113h1.098v1.112zM8.805 21.548h-1.098v-1.113h1.098v1.112zM7.706 21.548h-1.098v-1.113h1.098v1.112zM31.859 20.435h-1.098v-1.114h1.098v1.114zM30.762 20.435h-1.098v-1.114h1.098v1.114z"></path>
<path fill="#ecd979" style="fill: var(--color1, #ecd979)" d="M29.664 20.435h-1.098v-1.114h1.098v1.114zM26.37 20.435h-1.098v-1.114h1.098v1.114zM23.077 20.435h-1.098v-1.114h1.098v1.114zM21.978 20.435h-1.098v-1.114h1.098v1.114zM13.196 20.435h-1.098v-1.114h1.098v1.114zM12.098 20.435h-1.098v-1.114h1.098v1.114zM8.805 20.435h-1.098v-1.114h1.098v1.114zM5.511 20.435h-1.098v-1.114h1.099v1.114zM4.413 20.435h-1.098v-1.114h1.098v1.114zM3.315 20.435h-1.098v-1.114h1.098v1.114zM35.152 19.322h-1.096v-1.113h1.098v1.113zM30.762 19.322h-1.098v-1.113h1.098v1.113z"></path>
<path fill="#ecd979" style="fill: var(--color1, #ecd979)" d="M29.664 19.322h-1.098v-1.113h1.098v1.113zM28.566 19.322h-1.098v-1.113h1.098v1.113zM24.174 19.322h-1.098v-1.113h1.098v1.113zM23.077 19.322h-1.098v-1.113h1.098v1.113zM12.098 19.322h-1.098v-1.113h1.098v1.113zM11 19.322h-1.098v-1.113h1.098v1.113zM6.609 19.322h-1.098v-1.113h1.097v1.113z"></path>
<path fill="#ecd979" style="fill: var(--color1, #ecd979)" d="M5.511 19.322h-1.098v-1.113h1.099v1.113zM4.413 19.322h-1.098v-1.113h1.098v1.113zM35.152 18.208h-1.096v-1.112h1.098v1.112zM34.055 18.208h-1.098v-1.112h1.098v1.112zM29.664 18.208h-1.098v-1.112h1.098v1.112zM28.566 18.208h-1.098v-1.112h1.098v1.112zM27.468 18.208h-1.098v-1.112h1.098v1.112zM25.272 18.208h-1.098v-1.112h1.098v1.112zM24.174 18.208h-1.098v-1.112h1.098v1.112zM17.587 18.208h-1.098v-1.112h1.098v1.112zM11 18.208h-1.098v-1.112h1.098v1.112zM9.902 18.208h-1.098v-1.112h1.098v1.112zM7.706 18.208h-1.098v-1.112h1.098v1.112zM6.609 18.208h-1.098v-1.112h1.097v1.112z"></path>
<path fill="#ecd979" style="fill: var(--color1, #ecd979)" d="M5.511 18.208h-1.098v-1.112h1.099v1.112zM1.098 17.096h-1.098v-1.114h1.098v1.114zM2.218 17.096h-1.098v-1.114h1.098v1.114zM1.098 18.208h-1.098v-1.112h1.098v1.112zM1.098 15.982h-1.098v-1.113h1.098v1.113zM35.152 17.096h-1.096v-1.114h1.098v1.114zM34.055 17.096h-1.098v-1.114h1.098v1.114zM32.957 17.096h-1.098v-1.114h1.098v1.114zM18.685 17.096h-1.098v-1.114h1.098v1.114zM17.587 17.096h-1.098v-1.114h1.098v1.114zM16.49 17.096h-1.098v-1.114h1.098v1.114zM35.152 15.982h-1.096v-1.113h1.098v1.113zM34.055 15.982h-1.098v-1.113h1.098v1.113zM29.664 15.982h-1.098v-1.113h1.098v1.113zM28.566 15.982h-1.098v-1.113h1.098v1.113zM27.468 15.982h-1.098v-1.113h1.098v1.113zM25.272 15.982h-1.098v-1.113h1.098v1.113zM24.174 15.982h-1.098v-1.113h1.098v1.113zM17.587 15.982h-1.098v-1.113h1.098v1.113zM11 15.982h-1.098v-1.113h1.098v1.113zM9.902 15.982h-1.098v-1.113h1.098v1.113zM7.706 15.982h-1.098v-1.113h1.098v1.113zM6.609 15.982h-1.098v-1.113h1.097v1.113z"></path>
<path fill="#ecd979" style="fill: var(--color1, #ecd979)" d="M5.511 15.982h-1.098v-1.113h1.099v1.113zM35.152 14.87h-1.096v-1.113h1.098v1.112zM30.762 14.87h-1.098v-1.113h1.098v1.112z"></path>
<path fill="#ecd979" style="fill: var(--color1, #ecd979)" d="M29.664 14.87h-1.098v-1.113h1.098v1.112zM28.566 14.87h-1.098v-1.113h1.098v1.112zM24.174 14.87h-1.098v-1.113h1.098v1.112zM23.077 14.87h-1.098v-1.113h1.098v1.112zM12.098 14.87h-1.098v-1.113h1.098v1.112zM11 14.87h-1.098v-1.113h1.098v1.112zM6.609 14.87h-1.098v-1.113h1.097v1.112z"></path>
<path fill="#ecd979" style="fill: var(--color1, #ecd979)" d="M5.511 14.87h-1.098v-1.113h1.099v1.112zM4.413 14.87h-1.098v-1.113h1.098v1.112zM31.859 13.757h-1.098v-1.114h1.098v1.114zM30.762 13.757h-1.098v-1.114h1.098v1.114z"></path>
<path fill="#ecd979" style="fill: var(--color1, #ecd979)" d="M29.664 13.757h-1.098v-1.114h1.098v1.114zM26.37 13.757h-1.098v-1.114h1.098v1.114zM23.077 13.757h-1.098v-1.114h1.098v1.114zM21.978 13.757h-1.098v-1.114h1.098v1.114zM13.196 13.757h-1.098v-1.114h1.098v1.114zM12.098 13.757h-1.098v-1.114h1.098v1.114zM8.805 13.757h-1.098v-1.114h1.098v1.114zM5.511 13.757h-1.098v-1.114h1.099v1.114zM4.413 13.757h-1.098v-1.114h1.098v1.114zM3.315 13.757h-1.098v-1.114h1.098v1.114zM27.468 12.643h-1.098v-1.113h1.098v1.113zM26.37 12.643h-1.098v-1.113h1.098v1.113zM21.978 12.643h-1.098v-1.113h1.098v1.113z"></path>
<path fill="#ecd979" style="fill: var(--color1, #ecd979)" d="M20.88 12.643h-1.098v-1.113h1.098v1.113zM14.294 12.643h-1.098v-1.113h1.098v1.113zM13.196 12.643h-1.098v-1.113h1.098v1.113zM8.805 12.643h-1.098v-1.113h1.098v1.113zM7.706 12.643h-1.098v-1.113h1.098v1.113zM28.566 11.53h-1.098v-1.113h1.098v1.113zM27.468 11.53h-1.098v-1.113h1.098v1.113zM26.37 11.53h-1.098v-1.113h1.098v1.113zM20.88 11.53h-1.098v-1.113h1.098v1.113z"></path>
<path fill="#ecd979" style="fill: var(--color1, #ecd979)" d="M19.783 11.53h-1.098v-1.113h1.098v1.113zM15.392 11.53h-1.098v-1.113h1.098v1.113z"></path>
<path fill="#ecd979" style="fill: var(--color1, #ecd979)" d="M14.294 11.53h-1.098v-1.113h1.098v1.113zM8.805 11.53h-1.098v-1.113h1.098v1.113zM7.706 11.53h-1.098v-1.113h1.098v1.113zM6.609 11.53h-1.098v-1.113h1.097v1.113zM28.566 10.418h-1.098v-1.114h1.098v1.114zM27.468 10.418h-1.098v-1.114h1.098v1.114zM19.783 10.418h-1.098v-1.114h1.098v1.114z"></path>
<path fill="#ecd979" style="fill: var(--color1, #ecd979)" d="M18.685 10.418h-1.098v-1.114h1.098v1.114zM16.49 10.418h-1.098v-1.114h1.098v1.114zM15.392 10.418h-1.098v-1.114h1.098v1.114zM7.706 10.418h-1.098v-1.114h1.098v1.114zM6.609 10.418h-1.098v-1.114h1.097v1.114zM28.566 9.304h-1.098v-1.112h1.098v1.112zM18.685 9.304h-1.098v-1.112h1.098v1.112zM16.49 9.304h-1.098v-1.112h1.098v1.112zM6.609 9.304h-1.098v-1.112h1.097v1.112zM34.055 8.192h-1.098v-1.114h1.098v1.113zM1.12 8.192h-1.099v-1.114h1.099v1.113z"></path>
<path fill="#ecd979" style="fill: var(--color1, #ecd979)" d="M34.055 7.078h-1.098v-1.114h1.098v1.114zM32.957 7.078h-1.098v-1.114h1.098v1.114zM23.077 7.078h-1.098v-1.114h1.098v1.114zM21.978 7.078h-1.098v-1.114h1.098v1.114z"></path>
<path fill="#ecd979" style="fill: var(--color1, #ecd979)" d="M20.88 7.078h-1.098v-1.114h1.098v1.114zM14.294 7.078h-1.098v-1.114h1.098v1.114zM13.196 7.078h-1.098v-1.114h1.098v1.114zM12.098 7.078h-1.098v-1.114h1.098v1.114zM2.218 7.078h-1.098v-1.114h1.098v1.114z"></path>
<path fill="#ecd979" style="fill: var(--color1, #ecd979)" d="M1.12 7.078h-1.099v-1.114h1.099v1.114zM34.055 5.966h-1.098v-1.114h1.098v1.114zM32.957 5.966h-1.098v-1.114h1.098v1.114zM31.859 5.966h-1.098v-1.114h1.098v1.114zM24.174 5.966h-1.098v-1.114h1.098v1.114zM23.077 5.966h-1.098v-1.114h1.098v1.114zM21.978 5.966h-1.098v-1.114h1.098v1.114zM18.685 5.966h-1.098v-1.114h1.098v1.114zM16.49 5.966h-1.098v-1.114h1.098v1.114zM13.196 5.966h-1.098v-1.114h1.098v1.114zM12.098 5.966h-1.098v-1.114h1.098v1.114zM11 5.966h-1.098v-1.114h1.098v1.114zM3.315 5.966h-1.098v-1.114h1.098v1.114z"></path>
<path fill="#ecd979" style="fill: var(--color1, #ecd979)" d="M2.218 5.966h-1.098v-1.114h1.098v1.114z"></path>
<path fill="#ecd979" style="fill: var(--color1, #ecd979)" d="M1.12 5.966h-1.099v-1.114h1.099v1.114zM32.957 4.852h-1.098v-1.113h1.098v1.113zM31.859 4.852h-1.098v-1.113h1.098v1.113zM30.762 4.852h-1.098v-1.113h1.098v1.113zM25.272 4.852h-1.098v-1.113h1.098v1.113zM24.174 4.852h-1.098v-1.113h1.098v1.113zM23.077 4.852h-1.098v-1.113h1.098v1.113zM19.783 4.852h-1.098v-1.113h1.098v1.113z"></path>
<path fill="#ecd979" style="fill: var(--color1, #ecd979)" d="M18.685 4.852h-1.098v-1.113h1.098v1.113zM16.49 4.852h-1.098v-1.113h1.098v1.113zM15.392 4.852h-1.098v-1.113h1.098v1.113zM12.098 4.852h-1.098v-1.113h1.098v1.113zM11 4.852h-1.098v-1.113h1.098v1.113zM9.902 4.852h-1.098v-1.113h1.098v1.113zM4.413 4.852h-1.098v-1.113h1.098v1.113zM3.315 4.852h-1.098v-1.113h1.098v1.113z"></path>
<path fill="#ecd979" style="fill: var(--color1, #ecd979)" d="M2.218 4.852h-1.098v-1.113h1.098v1.113zM31.859 3.739h-1.098v-1.113h1.098v1.112zM30.762 3.739h-1.098v-1.113h1.098v1.112z"></path>
<path fill="#ecd979" style="fill: var(--color1, #ecd979)" d="M29.664 3.739h-1.098v-1.113h1.098v1.112zM20.88 3.739h-1.098v-1.113h1.098v1.112z"></path>
<path fill="#ecd979" style="fill: var(--color1, #ecd979)" d="M19.783 3.739h-1.098v-1.113h1.098v1.112z"></path>
<path fill="#ecd979" style="fill: var(--color1, #ecd979)" d="M18.685 3.739h-1.098v-1.113h1.098v1.112zM16.49 3.739h-1.098v-1.113h1.098v1.112zM15.392 3.739h-1.098v-1.113h1.098v1.112z"></path>
<path fill="#ecd979" style="fill: var(--color1, #ecd979)" d="M14.294 3.739h-1.098v-1.113h1.098v1.112zM5.511 3.739h-1.098v-1.113h1.099v1.112zM4.413 3.739h-1.098v-1.113h1.098v1.112zM3.315 3.739h-1.098v-1.113h1.098v1.112zM35.152 2.626h-1.096v-1.114h1.098v1.114zM30.762 2.626h-1.098v-1.114h1.098v1.114z"></path>
<path fill="#ecd979" style="fill: var(--color1, #ecd979)" d="M29.664 2.626h-1.098v-1.114h1.098v1.114zM28.566 2.626h-1.098v-1.114h1.098v1.114zM20.88 2.626h-1.098v-1.114h1.098v1.114z"></path>
<path fill="#ecd979" style="fill: var(--color1, #ecd979)" d="M19.783 2.626h-1.098v-1.114h1.098v1.114zM15.392 2.626h-1.098v-1.114h1.098v1.114z"></path>
<path fill="#ecd979" style="fill: var(--color1, #ecd979)" d="M14.294 2.626h-1.098v-1.114h1.098v1.114zM6.609 2.626h-1.098v-1.114h1.097v1.114z"></path>
<path fill="#ecd979" style="fill: var(--color1, #ecd979)" d="M5.511 2.626h-1.098v-1.114h1.099v1.114zM4.413 2.626h-1.098v-1.114h1.098v1.114zM35.152 1.513h-1.096v-1.113h1.098v1.113zM34.055 1.513h-1.098v-1.113h1.098v1.113zM29.664 1.513h-1.098v-1.113h1.098v1.113zM28.566 1.513h-1.098v-1.113h1.098v1.113zM27.468 1.513h-1.098v-1.113h1.098v1.113zM20.88 1.513h-1.098v-1.113h1.098v1.113zM14.294 1.513h-1.098v-1.113h1.098v1.113zM7.706 1.513h-1.098v-1.113h1.098v1.113z"></path>
<path fill="#ecd979" style="fill: var(--color1, #ecd979)" d="M6.609 1.513h-1.098v-1.113h1.097v1.113z"></path>
<path fill="#ecd979" style="fill: var(--color1, #ecd979)" d="M5.511 1.513h-1.098v-1.113h1.099v1.113zM1.12 1.513h-1.099v-1.113h1.099v1.113z"></path>
</symbol>
<symbol id="icon-burger-menu" viewBox="0 0 32 32">
<path fill="none" stroke="#ecd979" style="stroke: var(--color2, #ecd979)" stroke-linejoin="miter" stroke-linecap="round" stroke-miterlimit="4" stroke-width="2.1818" d="M5.961 8.628h24.949"></path>
<path fill="none" stroke="#ecd979" style="stroke: var(--color2, #ecd979)" stroke-linejoin="miter" stroke-linecap="round" stroke-miterlimit="4" stroke-width="2.1818" d="M5.961 21.851h24.949"></path>
<path fill="none" stroke="#ecd979" style="stroke: var(--color2, #ecd979)" stroke-linejoin="miter" stroke-linecap="round" stroke-miterlimit="4" stroke-width="2.1818" d="M13.613 15.24h17.296"></path>
</symbol>
<symbol id="icon-youtube" viewBox="0 0 32 32">
<path d="M21.244 9.636c-0.865-0.051-2.647-0.102-5.345-0.102h-0.356c-2.596 0-4.327 0.051-5.193 0.153-1.171 0.102-1.985 0.407-2.444 0.815-0.407 0.356-0.713 1.018-0.815 1.884-0.051 0.56-0.102 1.731-0.102 3.513v0.255c0 1.68 0.051 2.851 0.153 3.411 0.153 0.815 0.407 1.425 0.916 1.782 0.509 0.407 1.375 0.662 2.596 0.764 0.865 0.051 2.647 0.102 5.345 0.102h0.356c2.596 0 4.327-0.051 5.193-0.153 1.171-0.102 1.985-0.407 2.444-0.815 0.407-0.356 0.713-1.018 0.815-1.884 0.051-0.56 0.102-1.731 0.102-3.513v-0.255c0-1.68-0.051-2.851-0.153-3.411-0.153-0.815-0.407-1.425-0.916-1.782-0.509-0.407-1.375-0.662-2.596-0.764zM19.258 15.898l-5.6 3.36v-6.72l5.6 3.36z"></path>
</symbol>
</defs>
</svg>
