<svg aria-hidden="true" style="position:absolute;width:0;height:0;overflow:hidden" xmlns="http://www.w3.org/2000/svg">
  <defs>
    <symbol id="icon-Star-10" viewBox="0 0 32 32">
      <path fill="#ecd979" style="fill:var(--color1, #ecd979)" d="M15.43.33a.65.65 0 0 1 1.14 0l1.84 3.2c.19.34.62.44.93.22l3.08-2.1c.42-.3.99-.02 1.02.49l.24 3.64c.03.38.38.66.76.6l3.69-.58c.5-.08.9.42.7.9l-1.38 3.35c-.15.36.04.77.42.88l3.55 1.04c.5.14.64.77.25 1.11l-2.73 2.43c-.29.26-.29.72 0 .98l2.73 2.43c.39.34.24.97-.25 1.12l-3.55 1.03a.65.65 0 0 0-.42.88l1.38 3.36c.2.47-.2.97-.7.9l-3.7-.6a.65.65 0 0 0-.75.61l-.24 3.64c-.03.5-.6.78-1.02.5l-3.08-2.1a.65.65 0 0 0-.93.2l-1.84 3.2a.65.65 0 0 1-1.14 0l-1.84-3.2a.65.65 0 0 0-.93-.2l-3.08 2.1a.65.65 0 0 1-1.02-.5l-.24-3.64a.65.65 0 0 0-.75-.6l-3.7.58a.65.65 0 0 1-.7-.9l1.39-3.35a.65.65 0 0 0-.43-.88L.58 20.04a.65.65 0 0 1-.25-1.12l2.73-2.43c.29-.26.29-.72 0-.98L.33 13.08a.65.65 0 0 1 .25-1.11l3.55-1.04c.38-.11.57-.52.43-.88L3.16 6.7c-.18-.47.21-.97.72-.9l3.69.6c.38.05.72-.23.75-.6l.24-3.65c.03-.5.6-.78 1.02-.5l3.08 2.11c.31.22.74.12.93-.21l1.84-3.2z"/>
    </symbol>
    <symbol id="icon--7" viewBox="0 0 48 32">
<path fill="#ecd979" style="fill: var(--color1, #ecd979)" d="M40.165 18.935c-0.261-1.955-0.429-3.7-0.506-5.235-0.033-1.56 0.026-2.91 0.178-4.050l-37.94 21.905-1.795-3.109 37.94-21.905c-1.092-0.488-2.305-1.137-3.639-1.945-1.291-0.834-2.704-1.827-4.238-2.981l2.278-1.315c4.813 2.024 9.215 3.036 13.206 3.035l0.769 1.332c-2.025 3.406-3.35 7.724-3.975 12.954l-2.278 1.315z"></path>
</symbol>
  </defs>
</svg>